<svg t="1711432837778" class="icon" viewBox="0 0 1024 1024" version="1.1" xmlns="http://www.w3.org/2000/svg"
     p-id="36186" width="200" height="200">
    <path d="M862.071467 781.1072h-709.973334a27.306667 27.306667 0 0 1-27.306666-27.306667V213.538133a87.927467 87.927467 0 0 1 87.790933-87.790933h589.0048a87.927467 87.927467 0 0 1 87.790933 87.790933v540.2624a27.306667 27.306667 0 0 1-27.306666 27.306667z m-682.666667-54.613333h655.36V213.538133a33.314133 33.314133 0 0 0-33.1776-33.1776H212.718933a33.314133 33.314133 0 0 0-33.1776 33.1776z"
          fill="#0073FF" p-id="36187"></path>
    <path d="M866.986667 898.2528H147.182933A137.762133 137.762133 0 0 1 9.693867 760.763733v-4.232533a30.037333 30.037333 0 0 1 30.037333-30.037333h934.843733a30.037333 30.037333 0 0 1 30.037334 30.037333v4.232533A137.762133 137.762133 0 0 1 866.986667 898.2528zM66.7648 781.1072a83.1488 83.1488 0 0 0 80.418133 62.6688H866.986667a83.1488 83.1488 0 0 0 80.418133-62.6688zM489.608533 564.565333a27.306667 27.306667 0 0 1-19.2512-8.055466l-67.447466-67.447467A27.306667 27.306667 0 1 1 441.5488 450.56l48.059733 48.059733L600.746667 387.4816a27.306667 27.306667 0 1 1 38.638933 38.638933l-130.525867 130.525867a27.306667 27.306667 0 0 1-19.2512 7.918933z"
          fill="#0073FF" p-id="36188"></path>
</svg>