<svg t="1710763836285" class="icon" viewBox="0 0 1024 1024" version="1.1" xmlns="http://www.w3.org/2000/svg" p-id="6782"
     width="200" height="200">
    <path d="M510.492 1020.122c280.726 0 508.563-227.837 508.563-508.563s-227.837-508.562-508.563-508.562-508.563 227.836-508.563 508.563 227.836 508.562 508.563 508.562zM510.492 155.565c84.421 0 152.57 68.147 152.57 152.57 0 84.421-68.147 152.57-152.57 152.57-84.422 0-152.57-68.147-152.57-152.57 0-84.422 68.147-152.57 152.57-152.57zM510.492 557.329c101.204 0 303.612 55.434 305.137 156.637-65.604 98.661-177.998 163.757-305.137 163.757-127.141 0-239.533-65.095-305.137-163.757 1.524-101.203 203.424-156.637 305.137-156.637z"
          fill="#26c7db" p-id="6783"></path>
</svg>