<svg t="1711366448097" class="icon" viewBox="0 0 1024 1024" version="1.1" xmlns="http://www.w3.org/2000/svg"
     p-id="24200" width="200" height="200">
    <path d="M174.42816 736v-320c0-154.81856 115.9936-283.93984 270.06976-313.6v-38.4c0-35.36384 30.208-64 67.51232-64s67.51232 28.63616 67.51232 64V102.4c154.07104 29.66016 270.05952 158.77632 270.05952 313.6v320h33.85856c37.23776 0 67.40992 28.416 67.40992 63.99488 0 35.37408-30.21824 64-67.40992 64H140.56448c-37.248 0-67.42016-28.416-67.42016-64 0-35.3536 30.208-63.99488 67.42016-63.99488h33.86368z m438.8608 191.99488c0 53.03296-45.3376 96.00512-101.27872 96.00512s-101.27872-42.97216-101.27872-96.00512h202.55744z"
          fill="#ff9900" p-id="24201"></path>
</svg>