<svg t="1713010253296" class="icon" viewBox="0 0 1024 1024" version="1.1" xmlns="http://www.w3.org/2000/svg"
     p-id="21343" width="200" height="200">
    <path d="M850.8 803.5H173.7c-26.7 0-48.4 21.7-48.4 48.4s21.7 48.4 48.4 48.4h677.1c26.7 0 48.4-21.7 48.4-48.4s-21.6-48.4-48.4-48.4zM754.1 755.1h48.4c26.7 0 48.4-21.7 48.4-48.4V513.3c0-26.7-21.7-48.4-48.4-48.4h-48.4c-26.7 0-48.4 21.7-48.4 48.4v193.5c0 26.7 21.7 48.3 48.4 48.3zM512.3 755.1h48.4c26.7 0 48.4-21.7 48.4-48.4v-532c0-26.7-21.7-48.4-48.4-48.4h-48.4c-26.7 0-48.4 21.7-48.4 48.4v532c0 26.8 21.7 48.4 48.4 48.4zM270.5 755.1h48.4c26.7 0 48.4-21.7 48.4-48.4V416.6c0-26.7-21.7-48.4-48.4-48.4h-48.4c-26.7 0-48.4 21.7-48.4 48.4v290.2c0 26.7 21.6 48.3 48.4 48.3z"
          fill="#3259CE" p-id="21344"></path>
</svg>