<svg t="1711365458486" class="icon" viewBox="0 0 1024 1024" version="1.1" xmlns="http://www.w3.org/2000/svg"
     p-id="15871" width="200" height="200">
    <path d="M1009.702454 611.103237a415.875128 415.875128 0 0 1-26.856982 67.822626 202.496207 202.496207 0 0 1-10.221978 18.772681 322.594726 322.594726 0 0 1-23.320101 35.835222 309.107934 309.107934 0 0 1-33.27001 37.972897l-17.490075 17.917611-45.785131 45.590796-81.03735 81.03735a444.481118 444.481118 0 0 1-34.125081 30.277264 352.366721 352.366721 0 0 1-62.186935 38.866835 366.786316 366.786316 0 0 1-327.919482-0.505269 343.349615 343.349615 0 0 1-61.409598-38.400433 379.884439 379.884439 0 0 1-34.552616-30.277264l-81.037349-81.037349-45.202129-45.629664-17.490075-17.490076a355.592668 355.592668 0 0 1-67.822626-93.280402 69.960302 69.960302 0 0 1-5.130422-9.833309 369.779063 369.779063 0 0 1-20.910357-57.134247 356.953007 356.953007 0 0 1-11.932119-63.119739 365.931246 365.931246 0 0 1 105.756657-296.437346l144.195956-144.157089a367.330452 367.330452 0 0 1 519.921643 0l144.157089 143.807288a368.030055 368.030055 0 0 1 93.824538 359.557085z"
          fill="#FFA811" p-id="15872"></path>
    <path d="M983.156406 678.886997a202.962609 202.962609 0 0 1-10.221977 18.772681 322.594726 322.594726 0 0 1-23.320101 35.835221 308.952467 308.952467 0 0 1-33.27001 37.972897l-17.490076 17.917611-45.629663 45.629663-81.03735 81.03735a444.053583 444.053583 0 0 1-34.125081 30.277264 352.405588 352.405588 0 0 1-62.186935 38.866835 366.786316 366.786316 0 0 1-327.958348-0.427536 343.349615 343.349615 0 0 1-61.409599-38.400432 379.495771 379.495771 0 0 1-34.552615-30.277264l-81.03735-81.03735-45.202129-45.629663-17.490075-17.490076a355.592668 355.592668 0 0 1-67.822626-93.280402A491.160186 491.160186 0 0 1 435.328375 331.883899a454.741963 454.741963 0 0 1 76.761998-6.413028 463.836802 463.836802 0 0 1 77.189533 6.413028 489.994181 489.994181 0 0 1 393.8765 347.003098z"
          fill="#FFFFFF" opacity=".15" p-id="15873"></path>
    <path d="M853.690981 816.669925a133.274375 133.274375 0 0 1-0.855071 18.345145l-81.037349 81.03735a444.908653 444.908653 0 0 1-34.125081 30.277264 352.522188 352.522188 0 0 1-62.186935 38.866835 366.747449 366.747449 0 0 1-327.958349-0.427536 343.466216 343.466216 0 0 1-61.409598-38.400432 380.311975 380.311975 0 0 1-34.552616-30.277264l-81.03735-81.03735a128.532621 128.532621 0 0 1-0.85507-18.345146 343.271881 343.271881 0 0 1 299.274625-339.501798 353.182924 353.182924 0 0 1 42.753518-2.565211 360.101221 360.101221 0 0 1 43.064452 2.565211 342.960947 342.960947 0 0 1 298.963691 339.501798z"
          fill="#FFFFFF" opacity=".2" p-id="15874"></path>
    <path d="M747.079254 816.35899a233.706275 233.706275 0 0 1-71.670443 168.876395 366.747449 366.747449 0 0 1-327.958348-0.427535 234.094944 234.094944 0 0 1-71.204041-168.487727 266.743085 266.743085 0 0 1 4.275352-45.629664 235.144348 235.144348 0 0 1 215.399996-188.504146 94.951676 94.951676 0 0 1 15.779935-0.855071 100.159832 100.159832 0 0 1 16.20747 0.855071 235.533017 235.533017 0 0 1 214.933594 188.504146 266.859685 266.859685 0 0 1 4.236485 45.668531z"
          fill="#FFFFFF" opacity=".25" p-id="15875"></path>
    <path d="M687.302063 388.046475a77.345 77.345 0 0 0-77.733669-77.072933h-298.885957a77.345 77.345 0 0 0-77.733669 77.072933v259.202918a77.345 77.345 0 0 0 77.733669 77.1118h298.885957a77.345 77.345 0 0 0 77.733669-77.072933 8.628437 8.628437 0 0 1 11.077048-8.278636l65.451749 19.433418a31.404402 31.404402 0 0 0 40.382641-30.08293v-222.668094a31.404402 31.404402 0 0 0-40.382641-30.08293l-66.656621 19.860952a7.773367 7.773367 0 0 1-9.911043-7.384698z m-289.208115 198.220855v-134.44038a31.404402 31.404402 0 0 1 48.194875-26.507181l106.145324 67.200757a31.404402 31.404402 0 0 1 0 53.053229l-106.145324 67.239623a31.404402 31.404402 0 0 1-48.194875-26.507181z"
          fill="#FFFFFF" p-id="15876"></path>
</svg>