<svg t="1711363687770" class="icon" viewBox="0 0 1821 1024" version="1.1" xmlns="http://www.w3.org/2000/svg"
     p-id="11200" width="200" height="200">
    <path d="M1245.333333 512c0 240.4-196.533333 436.933333-436.933333 436.933333S371.466667 752.4 371.466667 512c0-240.4 196.533333-436.933333 436.933333-436.933333S1245.333333 271.6 1245.333333 512m72.8 0c0-284-225.733333-509.733333-509.733333-509.733333S298.666667 228 298.666667 512s225.733333 509.733333 509.733333 509.733333S1318.133333 796 1318.133333 512z m0 0"
          p-id="11201" fill="#1296db"></path>
    <path d="M1063.333333 475.6H844.8V257.2c0-21.866667-14.533333-36.4-36.4-36.4S772 235.2 772 257.2v218.4H553.6c-14.533333 0-36.4 14.533333-36.4 36.4s14.533333 36.4 36.4 36.4H772v218.4c0 14.533333 14.533333 36.4 36.4 36.4s36.4-14.533333 36.4-36.4V548.4h218.4c14.533333 0 36.4-14.533333 36.4-36.4 0.133333-21.866667-21.733333-36.4-36.266667-36.4z m0 0"
          p-id="11202" fill="#1296db"></path>
</svg>