<svg t="1711029498315" class="icon" viewBox="0 0 1024 1024" version="1.1" xmlns="http://www.w3.org/2000/svg" p-id="5822"
     width="200" height="200">
    <path d="M816.170368 880.774407c22.608997-1.973423 42.683306-7.208604 59.263379-15.885105 95.315572-50.101106 156.396095-157.100586 147.832834-260.267167-6.723539-80.154361-55.516202-196.063174-112.362366-300.520205-5.276103-9.703429-8.310674-19.968476-17.966831-58.142612-1.389934-5.511757-2.445436-9.668152-3.544331-13.758931-10.045621-38.071831-19.05867-60.527018-33.358404-75.204928-21.473414-22.023743-49.914841-19.004695-80.842272 8.424267-40.952239 36.312189-41.240456 94.444571-14.199547 164.986872 10.797737 28.227645 25.011042 55.950115 40.298547 81.300174-42.142502-8.012579-77.621789-12.173207-107.760416-12.940492-45.411315-1.114769-71.265489 4.198728-104.764651 17.225297-42.719994 16.599122-52.056185 58.284075-22.236114 98.503601-29.878984 25.15321-34.107698 67.922593-4.875351 105.996541-16.9078 19.538091-19.142983 42.336528-9.236355 64.928239 4.026927 9.16192 9.70484 17.656389 16.430143 25.423436a85.898244 85.898244 0 0 0-10.755051 10.934614c-11.855004 14.462011-17.190726 31.677784-12.892868 50.623213 6.917918 30.467413 51.694943 61.033603 113.311331 83.302525 53.233042 19.247757 111.035579 29.054549 157.658323 25.070661z"
          fill="#1296db" p-id="5823"></path>
    <path d="M669.179961 826.203642c-52.036077-18.798322-89.759719-44.556188-93.437399-60.804299-1.972718-8.637343 0.395108-16.318666 6.566554-23.832774 5.183323-6.333017 12.0134-11.294797 17.679672-14.321607 0.213782-0.123471 7.724009-3.766931 22.494698-10.991058l-19.387455-15.447664c-1.229774-1.000823-3.632524-3.116767-6.56479-6.148869-6.602184-6.779277-12.144985-14.333248-15.442726-21.879811-6.387697-14.520572-3.934147-26.569249 11.893809-39.088528l13.70037-10.84254-12.298442-12.411683c-31.379336-31.702126-26.352293-64.340516 2.54633-78.703398l19.42873-9.669562-15.322429-15.390868c-29.013627-29.156854-26.304668-51.699529-1.021989-61.530663 29.886745-11.592892 51.75809-16.114057 92.627074-15.105826 36.361578 0.962723 81.717154 7.201549 138.613412 19.812902L871.283701 458.713336l-23.903681-33.288908c-1.277046-1.788216-3.734476-5.33925-7.038567-10.356415-18.991995-28.873576-37.29114-62.261613-50.200236-95.909999-22.879223-59.665542-22.65768-105.213028 5.7206-130.355302 19.612879-17.392866 29.41438-18.4078 37.665081-9.973655 9.178147 9.406393 16.873228 28.589945 25.50775 61.325348 1.059031 3.95108 2.109595 8.029159 3.459311 13.400511 10.609708 41.941773 13.666504 52.31618 20.809139 65.463752 54.701997 100.602611 102.420108 213.873373 108.649057 288.162144 7.499997 90.46033-46.815712 185.610451-131.191379 229.966263-12.563729 6.601831-28.669672 10.808673-47.381564 12.406039-41.509271 3.597599-94.937045-5.475774-144.199604-23.350177l-5.312086 14.71742 5.312086-14.717068z"
          fill="#1296db" p-id="5824"></path>
    <path d="M648.421621 827.149079c49.316887 27.211653 121.940207 35.101466 167.214999 31.040673-3.180972-16.65733-9.637813-53.664133-14.145925-96.114608-6.11218-57.858628 64.581814-155.050964 64.581814-155.050964s-42.863221-37.129569-62.980216-84.743611c-20.086656-47.631681 34.362402-87.377429 34.362402-87.377429-61.278782-13.217421-106.034641-18.417677-139.853063-19.138044l-0.286454 0.491416s1.138758 0.279398 3.13229 0.839604c-3.611005 1.718014-4.367355 7.816789 0.524929 9.799031 10.138754 4.085135 21.367582 8.15263 30.409911 14.50117 16.170501 11.357238 19.590301 17.774216 16.521864 37.224818-3.017637 18.973298-4.520459 20.533269-20.648626 27.5228-7.686262 3.337957-15.97718 5.558323-24.09418 7.515519-28.695424 6.953901-56.734334 4.03751-85.839331 2.591838-9.47977-0.47413-12.669561 13.262223-3.370059 16.52892 31.826302 11.239412 82.100621 11.746349 118.363069-3.690733 0.017639 0.030691 0.017639 0.030691 0.04833 0.013053 4.578667 2.285629 8.480006 4.880289 11.704722 7.784686 6.686145 10.80444 10.644986 20.413326 12.743291 28.774446-0.486477 15.597241-10.708485 31.193777-27.517861 39.473053-13.124641 6.477655-29.885334 8.985179-44.43554 10.664389-30.124869 3.420506-58.418835-2.688851-88.171878-6.245176-8.35724-0.999764-9.561966 10.531039-2.691673 13.61147 40.893678 18.265984 111.384474 21.969063 154.215592-1.211782 31.670376 24.445897 2.317026 68.359682-25.247049 80.73009-26.472589 11.862059-57.993035 8.348773-86.195986 7.971304-5.947081-0.069849-8.139578 8.691318-2.005173 10.567375 28.972 8.976713 63.366504 14.293032 93.000663 5.860652 0.464252 1.157102 1.16063 2.22213 2.358301 2.956254 51.921778 32.428842-13.340187 73.977624-46.480576 77.183643-27.861111 2.683912-56.379795-4.802679-80.76184-18.669912-8.132875-4.632641-15.265633 6.08431-7.940965 11.998231 15.445901 12.7126 33.97823 21.810315 53.484218 26.597824z"
          fill="#1296db" p-id="5825"></path>
    <path d="M207.923823 880.783932c-22.60935-1.973423-42.683306-7.208604-59.263379-15.885105C53.344872 814.797368-7.73565 707.79824 0.82761 604.63166c6.723186-80.154361 55.516202-196.063174 112.362366-300.520205 5.276103-9.703782 8.310321-19.968476 17.966831-58.142612 1.389934-5.511757 2.445436-9.668152 3.544331-13.758931 10.045621-38.071831 19.05867-60.527018 33.358404-75.20528 21.4907-22.053729 49.949765-19.065372 80.87755 8.363237 40.952239 36.312542 41.240456 94.444924 14.199546 164.987224-10.797737 28.227292-25.011042 55.949763-40.298899 81.299821 42.142855-8.012226 77.622142-12.173207 107.760769-12.940139 45.411315-1.114769 71.265489 4.198375 104.76465 17.225297 42.719994 16.598769 52.055832 58.283722 22.236114 98.5036 29.878984 25.152858 34.107698 67.922241 4.875351 105.996189 16.9078 19.538444 19.142983 42.336528 9.236355 64.928239-4.026927 9.162272-9.70484 17.656389-16.430143 25.423789a85.898244 85.898244 0 0 1 10.755052 10.934614c11.855004 14.462011 17.190726 31.677784 12.892868 50.62286-6.917918 30.467413-51.694943 61.033603-113.311331 83.302525-53.21999 19.296087-111.07121 29.115932-157.693601 25.131691z"
          fill="#1296db" p-id="5826"></path>
    <path d="M354.931516 826.182476c52.03643-18.798322 89.760072-44.556188 93.437751-60.8043 1.972718-8.637343-0.395461-16.318666-6.566554-23.832773-5.183323-6.332664-12.013753-11.294444-17.679672-14.321607-0.214134-0.123471-7.724009-3.766931-22.494698-10.991058l19.387456-15.447312c1.229774-1.001175 3.632524-3.116767 6.56479-6.149221 6.602184-6.779277 12.144985-14.333248 15.442726-21.879811 6.387697-14.520572 3.933794-26.568897-11.894162-39.088529l-13.700017-10.84254 12.298442-12.411683c31.379336-31.701773 26.352293-64.340516-2.54633-78.703397l-19.428731-9.66921 15.32243-15.391221c29.013627-29.156854 26.304668-51.699177 1.021989-61.53031-29.886745-11.593245-51.75809-16.114409-92.627074-15.105826-36.361931 0.96237-81.717154 7.201549-138.613412 19.81255l-40.028674 8.866294 23.903681-33.288907c1.277046-1.788216 3.734123-5.338897 7.038214-10.356416 18.992348-28.873576 37.29114-62.261613 50.200588-95.909998 22.800554-59.670481 22.578658-105.217614-5.799621-130.359889-19.612879-17.393219-29.41438-18.408152-37.664728-9.973655-9.1785 9.406393-16.873228 28.589945-25.50775 61.325348-1.059031 3.95108-2.109595 8.028806-3.459664 13.400512-10.609355 41.94142-13.666504 52.315827-20.808786 65.463751-54.701997 100.602611-102.420108 213.873373-108.64941 288.162145-7.499997 90.459977 46.816065 185.610451 131.191732 229.96591 12.563729 6.602184 28.669319 10.809026 47.381211 12.406038 41.618631 3.620177 94.99878-5.440143 144.278273-23.344885l5.312439 14.717067-5.312439-14.717067z"
          fill="#1296db" p-id="5827"></path>
    <path d="M375.689856 827.128265c-49.316887 27.2113-121.940207 35.101113-167.214646 31.04032 3.180972-16.65733 9.637813-53.664133 14.145925-96.114608 6.11218-57.858628-64.581814-155.050964-64.581814-155.050963s42.863221-37.129216 62.980215-84.743611c20.086303-47.631681-34.362402-87.377429-34.362402-87.37743 61.278782-13.217421 106.034641-18.417677 139.853064-19.138044l0.286453 0.491416s-1.138758 0.279398-3.132289 0.839605c3.611005 1.718014 4.367355 7.816789-0.524929 9.799031-10.139106 4.085135-21.367582 8.152983-30.409911 14.501169-16.170501 11.357238-19.590301 17.774216-16.521864 37.224818 3.017637 18.973298 4.520459 20.533269 20.648626 27.523153 7.686262 3.337604 15.97718 5.55797 24.09418 7.515166 28.695071 6.953901 56.734334 4.03751 85.838978 2.591838 9.480123-0.47413 12.669914 13.262223 3.370059 16.52892-31.82595 11.239412-82.100621 11.746349-118.363069-3.690732-0.017639 0.030691-0.017639 0.030691-0.047977 0.013053-4.578667 2.285629-8.480006 4.880289-11.705075 7.784686-6.685792 10.80444-10.644633 20.413326-12.742938 28.774445 0.486477 15.597241 10.708485 31.193777 27.517861 39.473054 13.124641 6.477655 29.885334 8.985179 44.435539 10.664388 30.124516 3.420506 58.418835-2.688851 88.171526-6.245176 8.357945-0.999764 9.562319 10.531039 2.691673 13.611471-40.892973 18.265984-111.384121 21.969063-154.215239-1.211429-31.670729 24.445897-2.317026 68.359329 25.247048 80.729737 26.472236 11.862059 57.993035 8.348773 86.195986 7.971304 5.946728-0.069849 8.139578 8.691318 2.005173 10.567375-28.972 8.976713-63.366504 14.293385-93.000663 5.860651-0.464605 1.157455-1.16063 2.22213-2.3583 2.956255-51.921778 32.428842 13.340187 73.977624 46.480223 77.183642 27.861111 2.683912 56.380501-4.802679 80.762192-18.669911 8.132875-4.632641 15.265633 6.08431 7.940966 11.998231-15.463539 12.743291-33.995869 21.841006-53.484219 26.598176z"
          fill="#1296db" p-id="5828"></path>
</svg>