<svg t="1710823607824" class="icon" viewBox="0 0 1088 1024" version="1.1" xmlns="http://www.w3.org/2000/svg" p-id="8196"
     width="200" height="200">
    <path d="M575.168 0v128H256a128 128 0 0 0-128 128v512a128 128 0 0 0 128 128h512a128 128 0 0 0 128-128V447.424h128V768a256 256 0 0 1-256 256H256a256 256 0 0 1-256-256V256a256 256 0 0 1 256-256h319.168z"
          fill="#0082FF" p-id="8197"></path>
    <path d="M412.416 721.024l-86.848-94.08 638.016-589.44 86.848 94.08z" fill="#0082FF" p-id="8198"></path>
</svg>