<svg t="1706341248558" class="icon" viewBox="0 0 1024 1024" version="1.1" xmlns="http://www.w3.org/2000/svg"
     p-id="24131" width="200" height="200">
    <path d="M512 512m-512 0a512 512 0 1 0 1024 0 512 512 0 1 0-1024 0Z" fill="#FDEBED" p-id="24132"></path>
    <path d="M512 742.4c-126.72 0-230.4-103.68-230.4-230.4s103.68-230.4 230.4-230.4 230.4 103.68 230.4 230.4-103.68 230.4-230.4 230.4z m-64-332.8c-14.08 0-25.6 11.52-25.6 25.6s11.52 25.6 25.6 25.6 25.6-11.52 25.6-25.6-11.52-25.6-25.6-25.6z m-12.8 128c0 42.24 34.56 76.8 76.8 76.8s76.8-34.56 76.8-76.8H435.2z m140.8-128c-14.08 0-25.6 11.52-25.6 25.6s11.52 25.6 25.6 25.6 25.6-11.52 25.6-25.6-11.52-25.6-25.6-25.6z"
          fill="#EC3A4E" p-id="24133"></path>
</svg>
