<svg t="1711001842675" class="icon" viewBox="0 0 2218 1024" version="1.1" xmlns="http://www.w3.org/2000/svg" p-id="6628"
     width="200" height="200">
    <path d="M1021.866667 1005.027556h-226.218667L521.102222 692.792889 228.977778 1012.622222H13.169778l377.770666-448.853333H24.177778v-127.943111h411.818666v-195.697778h-180.622222l-64.284444 143.644444H0L155.392 23.893333h185.6l-38.968889 87.808h133.973333V0h177.351112v111.672889h428.828444v128.483555H613.347556v195.697778h428.828444v127.914667H645.176889l376.689778 441.258667z m523.064889-249.372445l146.602666 262.912h-159.772444l-90.624-166.968889L1348.352 1024H1185.28l186.140444-330.126222V223.857778h140.003556v469.987555l26.368 48.782223V136.618667h-193.820444v584.362666l-143.872 54.215111V19.512889h481.564444v683.576889l-136.732444 52.565333z m390.940444-316.586667l68.096-177.237333h170.211556l-146.602667 393.016889 152.661333 362.666667h-176.270222l-58.737778-142.592-53.276444 142.563555H1714.631111l138.922667-362.666666-143.872-344.746667h171.861333l54.357333 129.024z m-250.368-159.345777L1785.429333 4.892444h168.021334l-15.928889 48.782223H2218.666667v125.212444H1894.684444l-36.778666 100.835556h-172.401778z"
          fill="#E82720" p-id="6629"></path>
</svg>