<svg t="1711289320206" class="icon" viewBox="0 0 1189 1024" version="1.1" xmlns="http://www.w3.org/2000/svg" p-id="7076"
     width="200" height="200">
    <path d="M633.110123 987.710877l-76.304301-76.317609 467.713164-467.753086c76.690214-76.703522 76.690214-201.499779 0-278.189994s-201.459857-76.676907-278.189993 0l-113.21887 113.178948L556.792515 202.311527l113.205562-113.205562c118.768031-118.821261 312.05718-118.794646 430.825211 0s118.781339 312.05718 0 430.825211z"
          fill="#FF7642" p-id="7077"></path>
    <path d="M592.86872 1024l-36.156049-36.382274-467.620013-467.633321c-118.781339-118.768031-118.781339-312.05718 0-430.825211s312.070487-118.794646 430.825211 0l219.464691 219.451384-76.317609 76.317609-219.464691-219.411462c-76.716829-76.690214-201.486472-76.690214-278.189994 0s-76.690214 201.499779 0 278.189994l504.015595 504.215204z"
          fill="#FFAA06" p-id="7078"></path>
</svg>