<svg t="1711431807150" class="icon" viewBox="0 0 1024 1024" version="1.1" xmlns="http://www.w3.org/2000/svg"
     p-id="21581" width="200" height="200">
    <path d="M625.555922 70.652467v-17.714314c0-29.182541-23.755612-52.938153-52.98935-52.938153H141.330533A70.652467 70.652467 0 0 0 70.678066 70.652467v900.358182a52.938153 52.938153 0 1 0 105.927504 0v-335.445627c0-39.012449 31.640018-70.652467 70.652467-70.652468h168.951553c29.182541 0 52.938153 23.755612 52.938153 52.989351v17.663117c0 29.233738 23.704415 52.938153 52.98935 52.938153h360.634768a70.652467 70.652467 0 0 0 70.652468-70.60127V194.19189a70.652467 70.652467 0 0 0-70.652468-70.652467h-204.277786a52.938153 52.938153 0 0 1-52.938153-52.938153z"
          fill="#06A7D8" p-id="21582"></path>
</svg>