<svg t="1711422511447" class="icon" viewBox="0 0 1280 1024" version="1.1" xmlns="http://www.w3.org/2000/svg" p-id="8140"
     width="200" height="200">
    <path d="M451.884506 612.912506C451.884506 386.484548 650.264924 202.933446 894.910487 202.933446 908.226758 202.933446 921.397052 203.515509 934.416021 204.575439 842.816802 81.206793 687.071599 0 510.340806 0 228.48445 0 0 206.519242 0 461.263494 0 716.056252 228.48445 922.54675 510.340806 922.54675 539.743422 922.54675 568.553212 920.29395 596.592156 915.97878 507.691795 840.996828 451.884506 732.982793 451.884506 612.912506L451.884506 612.912506ZM894.910487 258.08393C683.149709 258.08393 511.474827 416.940463 511.474827 612.912506 511.474827 808.862989 683.149709 967.719522 894.910487 967.719522 1106.689069 967.719522 1278.36573 808.862989 1278.36573 612.912506 1278.36573 416.940463 1106.689069 258.08393 894.910487 258.08393L894.910487 258.08393ZM705.027204 640.997052C670.855298 640.997052 643.156384 613.023887 643.156384 578.568983 643.156384 544.119467 670.855298 516.153487 705.027204 516.153487 739.165284 516.153487 766.864201 544.119467 766.864201 578.568983 766.864201 613.023887 739.165284 640.997052 705.027204 640.997052L705.027204 640.997052ZM894.910487 640.997052C860.765284 640.997052 833.101975 613.023887 833.101975 578.568983 833.101975 544.119467 860.765284 516.153487 894.910487 516.153487 929.07527 516.153487 956.774187 544.119467 956.774187 578.568983 956.774187 613.023887 929.07527 640.997052 894.910487 640.997052L894.910487 640.997052ZM1086.641668 640.997052C1052.496467 640.997052 1024.797553 613.023887 1024.797553 578.568983 1024.797553 544.119467 1052.496467 516.153487 1086.641668 516.153487 1120.777969 516.153487 1148.50537 544.119467 1148.50537 578.568983 1148.50537 613.023887 1120.777969 640.997052 1086.641668 640.997052L1086.641668 640.997052ZM135.799277 983.081318C169.408623 991.16553 204.597052 995.46633 240.841169 995.46633 332.30153 995.46633 417.037886 968.350091 486.537079 922.027565 410.639667 918.876518 338.977468 900.757109 275.326398 870.779059 238.512602 918.132772 190.764506 956.771706 135.799277 983.081318L135.799277 983.081318ZM1071.523782 927.880533C1023.665312 950.925922 969.839443 964.855917 912.802003 967.318906 965.006063 1002.919972 1028.69274 1023.782624 1097.371238 1023.782624 1124.644674 1023.782624 1151.063588 1020.5184 1176.341363 1014.266611 1135.034214 994.034526 1099.130125 964.33673 1071.523782 927.880533L1071.523782 927.880533Z"
          fill="#1296db" p-id="8141"></path>
</svg>