<svg t="1711365750101" class="icon" viewBox="0 0 1138 1024" version="1.1" xmlns="http://www.w3.org/2000/svg"
     p-id="17842" width="200" height="200">
    <path d="M455.111111 170.666667 113.898894 170.666667C50.887908 170.666667 0 221.630481 0 284.49753L0 739.215636C0 802.314593 50.92022 853.046497 113.73349 853.046497L172.21302 853.046497C187.973689 853.046497 198.184505 865.662609 195.307292 881.22537L181.350827 956.715733C169.909817 1018.600124 204.185998 1041.96709 257.868999 1009.123009L464.356153 882.79094C491.464903 866.205397 538.455068 853.046497 569.888996 853.046497L796.386503 853.046497C859.102066 853.046497 910.222222 802.082685 910.222222 739.215636L910.222222 284.49753C910.222222 221.398574 859.227961 170.666667 796.323328 170.666667L512.309988 170.666667 512.309988 84.780592C512.309988 69.106742 525.251726 56.400577 540.501248 56.400577L1052.603563 56.400577C1068.17317 56.400577 1080.794823 69.221578 1080.794823 85.089991L1080.794823 426.632146C1080.794823 442.476871 1068.194816 455.32156 1052.108743 455.32156L1023.9552 455.32156C992.56357 455.32156 967.115605 480.765787 967.115605 512.369721L967.115605 495.070427C967.115605 510.856323 956.280519 516.569498 943.28357 508.072292L910.919879 486.913411 910.919879 545.668511 931.15702 560.04412C982.49674 596.513633 1024.115769 575.112496 1024.115769 512.477858L1024.115769 540.312772C1024.115769 524.759478 1036.71387 512.151043 1052.797497 512.151043L1080.946773 512.151043C1112.333682 512.151043 1137.777778 486.753391 1137.777778 455.385094L1137.777778 56.765949C1137.777778 25.41498 1112.262372 0 1080.748174 0L512.140715 0C480.644124 0 455.111111 25.262714 455.111111 57.010654L455.111111 170.666667 455.111111 170.666667ZM170.666667 597.333333C170.666667 581.623902 183.465216 568.888889 199.305813 568.888889L540.249742 568.888889C556.066702 568.888889 568.888889 581.514377 568.888889 597.333333 568.888889 613.042765 556.09034 625.777778 540.249742 625.777778L199.305813 625.777778C183.488853 625.777778 170.666667 613.15229 170.666667 597.333333L170.666667 597.333333ZM170.666667 426.666667C170.666667 410.957235 183.617593 398.222222 198.877952 398.222222L711.34427 398.222222C726.924942 398.222222 739.555556 410.84771 739.555556 426.666667 739.555556 442.376098 726.604629 455.111111 711.34427 455.111111L198.877952 455.111111C183.29728 455.111111 170.666667 442.485623 170.666667 426.666667L170.666667 426.666667Z"
          fill="#1571E5" p-id="17843"></path>
</svg>