<svg t="1703416040398" class="icon" viewBox="0 0 1024 1024" version="1.1" xmlns="http://www.w3.org/2000/svg" p-id="1541"
     width="200" height="200">
    <path d="M762.88 345.134545C753.803636 204.8 643.025455 93.090909 508.043636 93.090909s-246.225455 111.709091-256 252.509091A128.465455 128.465455 0 0 0 139.636364 473.134545v330.007273A128.232727 128.232727 0 0 0 267.869091 930.909091h488.727273a128.232727 128.232727 0 0 0 128-128V473.134545a128.232727 128.232727 0 0 0-121.716364-128zM508.043636 162.909091a192.232727 192.232727 0 0 1 186.181819 181.76H322.792727A192.465455 192.465455 0 0 1 508.043636 162.909091z m36.770909 454.516364v89.367272a34.909091 34.909091 0 0 1-69.818181 0v-89.134545a53.992727 53.992727 0 0 1-23.272728-43.752727 57.716364 57.716364 0 0 1 115.2 0 54.225455 54.225455 0 0 1-22.109091 43.752727z"
          p-id="1542"></path>
</svg>
