<svg t="1710681699483" class="icon" viewBox="0 0 1024 1024" version="1.1" xmlns="http://www.w3.org/2000/svg" p-id="1746"
     width="200" height="200">
    <path d="M768 857.216l160.629333 86.72-153.941333-426.965333c-6.688-20.010667-33.461333-33.354667-53.546667-26.677334l-153.92 53.365334c-20.085333 6.677333-26.773333 26.688-20.085333 53.376L701.066667 1024 768 857.216z m-468.501333 0L366.432 1024l153.930667-426.965333c13.386667-26.688 0-46.698667-20.074667-53.376L346.357333 483.626667c-20.085333-6.666667-40.16 6.677333-46.858666 26.688L145.578667 937.269333l153.92-80.053333z"
          fill="#E14B49" p-id="1747"></path>
    <path d="M510.250667 770.624l-189.578667 12.437333-104.597333-142.933333L85.333333 509.6l52.298667-174.016 26.144-174.016 176.512-62.144L510.250667 0l163.424 93.226667 176.512 62.144 26.144 174.016 52.298666 174.005333L797.888 633.92l-104.597333 142.933333c6.538667 6.218667-183.04-6.218667-183.04-6.218666z"
          fill="#F5D73E" p-id="1748"></path>
    <path d="M506.986667 722.826667c164.928 0 301.173333-136.245333 301.173333-301.184 0-164.928-136.245333-301.173333-301.184-301.173334-164.928 0-301.173333 136.245333-301.173333 301.173334 0 164.938667 129.077333 301.184 301.173333 301.184z"
          fill="#E0B335" p-id="1749"></path>
    <path d="M567.210667 247.765333V602.346667h-87.232V370.506667c-12.458667 13.632-31.146667 20.458667-43.626667 27.274666-12.458667 13.632-31.146667 20.458667-49.845333 20.458667v-81.834667c24.928-6.816 49.856-20.458667 68.544-34.090666 18.698667-13.642667 31.157333-34.101333 43.626666-61.376l68.533334 6.826666z"
          fill="#F9E999" p-id="1750"></path>
</svg>