<svg t="1710995898417" class="icon" viewBox="0 0 1954 1024" version="1.1" xmlns="http://www.w3.org/2000/svg"
     p-id="13067" width="200" height="200">
    <path d="M931.2 785.6l4.8-29.6h-50.4l8.8-49.6h52l5.6-30.4h-52l7.2-39.2h-56.8l-7.2 39.2h-16.8l14.4-30.4h-47.2l-15.2 32.8-4.8 28h64l-8.8 49.6h-56l-5.6 29.6H824l-10.4 58.4H752l-5.6 30.4h174.4l5.6-30.4h-56l10.4-58.4zM651.2 637.6l-36.8 206.4h-8l-5.6 30.4H656l12-68.8h29.6l-7.2 40h-12.8l2.4 28h55.2l41.6-236.8-125.6 0.8z m51.2 139.2h-29.6l6.4-38.4h29.6l-6.4 38.4z m12-66.4h-29.6l8-43.2h29.6l-8 43.2zM1128.8 718.4l4.8-28h-59.2l4.8-24.8h41.6l20.8-28H968.8l-4.8 28h56.8l-4.8 24.8h-58.4l-4.8 28h58.4L984 874.4h58.4l27.2-156z"
          fill="#e0620d" p-id="13068"></path>
    <path d="M1057.6 866.4H1096l24-135.2h-38.4zM1189.6 848h-24.8l5.6 26.4H1240l42.4-238.4h-56z" fill="#e0620d"
          p-id="13069"></path>
    <path d="M1208.8 649.6h-56L1120 836.8h56zM956.8 731.2l-24 135.2h39.2l23.2-135.2z" fill="#e0620d"
          p-id="13070"></path>
    <path d="M1238.4 422.4h238.4l40-225.6-52-44.8h-320l-70.4 396.8h136l28-126.4z m28.8-197.6h121.6l-22.4 125.6H1244.8l22.4-125.6z m485.6 110.4l201.6-174.4h-136.8l-163.2 140 26.4-151.2h-121.6l-70.4 399.2h121.6l31.2-176 129.6 172.8h113.6l32-52.8H1872l-119.2-157.6zM386.4 440H531.2l14.4-74.4h-197.6l22.4-122.4h-96l-22.4 122.4h-34.4l-2.4-12.8h32.8l-16.8-102.4h-76.8l6.4 37.6h-36l15.2 77.6h-108.8l-12.8 74.4h148l-48.8 33.6h-104l-13.6 75.2h149.6l129.6-89.6 68.8 89.6h168l13.6-75.2H414.4z"
          fill="#e0620d" p-id="13071"></path>
    <path d="M145.6 231.2H480l-8 42.4h89.6l19.2-108h-207.2l4.8-27.2h-96l-5.6 27.2h-208l-20 108h88.8zM537.6 538.4h231.2l73.6-392H611.2l-73.6 392z m155.2-316h38.4l-16 83.2h-38.4l16-83.2z m-28 150.4H704l-16.8 90.4H648l16.8-90.4zM1103.2 173.6l5.6-26.4H1011.2l-4.8 26.4H851.2l-12 67.2h155.2l-44 233.6h-72l-13.6 74.4h168.8l57.6-308h18.4l12-67.2z"
          fill="#e0620d" p-id="13072"></path>
    <path d="M922.4 259.2H836l-8 194.4h89.6z" fill="#e0620d" p-id="13073"></path>
</svg>