<svg t="1710996470174" class="icon" viewBox="0 0 1042 1024" version="1.1" xmlns="http://www.w3.org/2000/svg"
     p-id="15959" id="mx_n_1710996470175" width="200" height="200">
    <path d="M804.055 32v56.769h11.354c47.037 0 93.87 0.202 140.908-0.203 9.123 0 16.22 2.838 22.707 8.718 18.856 17.03 28.79 38.724 29.804 63.46 2.636 71.163-10.137 139.286-47.848 200.92-47.037 77.043-125.094 108.266-213.694 85.964-10.948-2.838-16.22-1.013-22.1 9.124-18.246 31.223-40.954 58.796-71.771 78.462-8.11 5.272-17.03 9.935-26.154 13.179-7.907 2.838-9.935 6.893-9.53 14.8 0.609 16.22 0.204 32.44 0.204 49.267H422.893c0-16.22-0.608-32.236 0.203-48.253 0.406-8.718-2.23-12.773-10.745-16.017-38.32-15.003-64.879-43.793-87.79-76.84-4.662-6.691-9.123-13.382-12.975-20.478-2.838-5.068-5.677-5.88-11.354-4.46-36.9 9.123-74.002 11.76-111.104 1.622-55.755-15.409-93.263-52.714-118.81-102.792-30.208-59.202-41.36-122.053-37.507-187.743 1.42-24.937 11.962-46.428 31.831-62.04 4.866-3.852 11.962-6.488 18.247-6.488 48.05-0.608 95.899-0.405 143.95-0.405h9.934V32h567.282zM277.93 384.98c-7.501-27.573-17.841-54.133-21.693-81.504-7.097-50.686-10.34-101.98-14.8-153.073-0.61-8.312-3.042-10.745-11.355-10.745-40.549 0.405-81.098 0.405-121.647 0-8.313 0-11.556 2.23-11.15 10.745 1.418 29.601 1.216 59.405 4.257 88.803 3.852 35.683 12.57 70.353 31.83 101.373 31.426 50.28 93.06 69.339 144.558 44.4m664.803-244.307H800.608c-6.285 82.72-5.88 166.048-39.94 243.902 27.978 11.557 54.943 14.8 82.517 6.286 39.94-12.368 64.067-41.36 78.462-78.868 21.491-54.944 23.519-112.321 21.086-171.32M262.724 991.797v-94.48c33.859-3.446 55.755-26.356 79.274-47.239 55.755-49.673 82.315-112.93 88.397-186.12 0.405-4.46 1.014-8.718 1.622-13.584h177.2c4.663 53.322 13.38 106.644 46.63 150.234 32.035 41.766 65.69 83.734 121.851 98.13V992H262.724z"
          p-id="15960" fill="#ea9518"></path>
</svg>