<svg t="1711290072175" class="icon" viewBox="0 0 1024 1024" version="1.1" xmlns="http://www.w3.org/2000/svg"
     p-id="14576" width="200" height="200">
    <path d="M462.191596 185.645925l113.532704-94.142347-255.146634 60.468505 141.61393 33.673842z m88.365938 20.9001l42.824199-92.461937-96.321629 79.806349z m67.951581 16.14769v-95.835885l-39.935995 86.383579 40.001636 9.452306z m81.316092 19.272203l-53.313635-115.055575v102.399987l53.366148 12.655588z m-308.342115 2.284307l42.771687-35.446149-119.873625-28.435689 77.08881 63.816197z m485.008348 39.7522L671.691467 114.21537l63.015376 136.126341 141.784597 33.673842z m-539.569161 5.487589l32.111585-26.623996-72.205118-59.759583z m156.855775 39.568405l44.242045-95.586449-68.90994-16.318357-55.230352 45.778046 79.87199 66.139889z m280.274015 6.025846l96.111577-22.764305-119.873625-28.435689 23.735792 51.199994z m-502.363833 8.428306l42.771687-35.446149-42.771687-92.343783z m374.783952 21.805946l99.564295-23.551997-30.654355-66.192401-68.844299-16.383998v106.141524zM561.755891 385.444053l56.805736-13.430152v-119.466651l-52.512813-12.406153-49.887174 107.454346 45.489225 37.730456z m242.569815 15.058049l72.205119-59.812094-89.993835 21.320202 17.788716 38.399995z m-313.409601 1.746052l35.95815-8.559589-23.066254-19.140921z m-91.674244 21.687792l56.805736-13.430152 25.298048-54.573942-89.875681-74.515683-42.010251 34.934149 49.808404 107.585628z m219.240997 8.559588V401.723025l-28.737637 6.866051 28.737637 23.853945zM271.727621 454.235839l99.511782-23.630766-44.268302-95.599577L271.727621 380.7179v73.517939z m-141.679572 6.564102l113.598344-94.142347V215.696383z m294.426219 17.644305l15.963895-34.514047-28.882048 6.866051 12.891896 27.713637z m415.980254 0l53.431788-115.055575-77.101939 63.855582 23.630766 51.199993z m-692.945962 5.185641l96.203474-22.829946v-56.858249l-96.190346 79.570041z m544.531622 9.819896l89.875681-74.384401-23.341946-50.425429-112.062345 26.518971v60.481633l45.594251 37.822354z m-45.541738 37.769841L669.643467 511.999934l-23.131895-19.154048v38.373738z m-402.78641 2.048v-42.653533L153.783841 511.999934z m139.986034 33.253739L408.996116 511.999934l-25.298048-54.5083-112.036088 26.505842v55.952403z m410.623947 11.684101L825.042011 511.999934l-30.719996-66.139889L714.515666 511.999934z m-353.883852 1.811692l-15.963895-34.448405-12.826255 27.569227 28.79015 6.800409z m114.451678 27.109741l63.606145-52.722866v-84.808194l-63.671786-52.762249-79.5044 18.8521L439.965548 511.999934l35.288611 76.14358 79.5044 18.8521z m-311.138422 12.891895V563.199928l-96.190347-22.829946 96.190347 79.688195z m374.783952 2.231795v-30.719996l-28.79015 23.853945 28.79015 6.80041z m300.635859 25.836304v-272.016375L856.011443 511.999934l63.015377 136.008188z m-415.376357 1.444103l23.184407-19.21969-36.02379-8.559589 12.826255 27.713638z m254.792172 5.960204l23.433843-50.412301-89.810039-74.450042-45.764918 37.822354v60.481633l112.036089 26.558356z m135.404291 5.251281l-53.366147-115.226241-23.788305 51.199993 77.16758 64.026248z m-17.473639 22.711792l-72.100093-59.812095-17.828101 38.426252 89.993835 21.385843z m-549.52034 5.540102l44.294558-95.599577-99.511782-23.630766V643.281969z m423.332048 51.199994l119.99178-28.435689-96.295372-22.790561-23.788305 51.318147z m-358.820056 2.284307l89.81004-74.515683-25.298048-54.573941-56.77948-13.430153-49.874045 107.651269 42.010251 34.881636z m255.041608 22.317946l68.90994-16.265844 30.719996-66.192402-99.629936-23.630766v106.194038z m-80.475887 19.154049l52.512814-12.471794v-119.466651l-56.687583-13.430152-45.804302 37.796098 49.887174 107.585627z m-96.912398 22.895587l68.857427-16.252716-44.268302-95.652091-79.87199 66.192402 55.230352 45.778046z m-225.398125 1.31282v-150.97434l-113.611472-94.207988 113.545831 245.156071z m28.015586 0l42.771687-92.278142-42.771687-35.446149v127.816188z m25.179895 12.655588l72.100093-59.693941-32.164099-26.610868-40.054148 86.317937z m17.473638 22.764305l119.873626-28.435689-42.771687-35.446149-77.220092 63.894966z m304.127961 53.615583v-95.835886l-40.054148 9.517948z m28.015587 0l53.366147-115.173729-53.366147 12.655588v102.583782z m-53.41866 12.655588l-42.771687-92.396296-53.366147 12.655588 96.137834 79.740708z m78.427887 0l204.799974-169.68203-141.784597 33.608201-63.015377 136.073829zM575.671787 932.496291l-113.545832-94.142347-141.61393 33.608201L575.671787 932.496291zM632.411882 1023.999869a59.6283 59.6283 0 0 1-47.524096-23.788305 64.81394 64.81394 0 0 1-13.246358-38.911995L312.018077 899.675782a61.1643 61.1643 0 0 1-16.567793 21.438356 58.669941 58.669941 0 0 1-37.822354 13.797742 59.6283 59.6283 0 0 1-47.589737-23.814561 64.446351 64.446351 0 0 1-12.826255-46.381943 63.146659 63.146659 0 0 1 22.160407-42.010251l-115.52819-249.317711a59.510146 59.510146 0 0 1-60.534146-22.317946 64.879581 64.879581 0 0 1 9.636101-88.667886 58.669941 58.669941 0 0 1 50.963686-12.222358l115.52819-249.317711a64.328197 64.328197 0 0 1-22.107894-56.018044 63.172915 63.172915 0 0 1 22.462356-42.285944 58.735582 58.735582 0 0 1 37.822354-13.797742 59.759582 59.759582 0 0 1 54.455788 35.30174l259.688992-61.361223a63.606146 63.606146 0 0 1 22.895587-48.968199A58.669941 58.669941 0 0 1 632.411882 0a59.6283 59.6283 0 0 1 47.589737 23.788305 65.457222 65.457222 0 0 1 7.351794 66.258042L895.645489 262.564069a58.669941 58.669941 0 0 1 37.467893-13.430152 59.707069 59.707069 0 0 1 47.589737 23.788304 64.879581 64.879581 0 0 1-9.636101 88.667886 58.906249 58.906249 0 0 1-23.972099 12.051691v276.716272a60.232197 60.232197 0 0 1 33.490047 22.042254 64.406966 64.406966 0 0 1 12.891895 46.381943 63.369838 63.369838 0 0 1-22.527997 42.351584 58.669941 58.669941 0 0 1-37.769841 13.732101A59.457633 59.457633 0 0 1 895.579848 761.4358L687.353413 933.953521a64.853325 64.853325 0 0 1-17.066664 76.261734A58.722454 58.722454 0 0 1 632.411882 1023.999869z"
          fill="#41AD49" p-id="14577"></path>
</svg>