<svg t="1711432536269" class="icon" viewBox="0 0 1024 1024" version="1.1" xmlns="http://www.w3.org/2000/svg"
     p-id="26330" width="200" height="200">
    <path d="M74.352 590.906h264.54v337.711H74.353z m312.383-227.955h264.54v565.666h-264.54z m309.569 123.827h264.54v441.84h-264.54z m-587.17 51.455l74.394-39.114 74.396 39.114-14.208-82.84 60.187-58.67-83.176-12.087-37.199-75.37-37.197 75.37-83.175 12.086 60.186 58.671zM444.61 324.349l74.395-39.114 74.395 39.114-14.208-82.84 60.188-58.67-83.177-12.087-37.198-75.37-37.198 75.37-83.176 12.086 60.188 58.671z m309.569 132.27l74.395-39.114 74.395 39.114-14.209-82.84 60.188-58.67-83.176-12.087-37.198-75.37-37.198 75.37-83.177 12.087 60.188 58.67z"
          fill="#4786EA" p-id="26331"></path>
</svg>