<svg t="1706515105604" class="icon" viewBox="0 0 1024 1024" version="1.1" xmlns="http://www.w3.org/2000/svg" p-id="4249"
     width="200" height="200">
    <path d="M635.712 78.72A127.808 127.808 0 0 0 569.472 54.72a633.792 633.792 0 0 0-52.224-1.408h-10.56a542.08 542.08 0 0 0-50.56 1.408 127.744 127.744 0 0 0-67.52 25.024 127.232 127.232 0 0 0-32.896 39.552c-7.808 13.696-15.552 30.72-24.32 50.048l-15.232 33.28H128A42.688 42.688 0 1 0 128 288h32V832A160 160 0 0 0 320 992h384a160 160 0 0 0 160-160V288h32a42.688 42.688 0 0 0 0-85.312h-184.256l-18.176-37.568a650.176 650.176 0 0 0-24.96-48.32 127.232 127.232 0 0 0-32.896-38.08zM616.96 202.688H409.92a556.16 556.16 0 0 1 19.84-41.088 39.232 39.232 0 0 1 34.048-21.888c11.392-1.024 26.176-1.024 49.664-1.024 22.912 0 37.376 0 48.384 1.024a39.296 39.296 0 0 1 33.6 21.056c5.632 9.28 11.84 21.952 21.504 41.92z m-211.648 563.712a32 32 0 0 1-32-32v-256a32 32 0 0 1 64 0v256a32 32 0 0 1-32 32z m245.376-288v256a32 32 0 1 1-64 0v-256a32 32 0 0 1 64 0z"
          fill="#333333" p-id="4250"></path>
</svg>
