<svg t="1711433117870" class="icon" viewBox="0 0 1024 1024" version="1.1" xmlns="http://www.w3.org/2000/svg"
     p-id="38553" width="200" height="200">
    <path d="M204.8 0h614.4a204.8 204.8 0 0 1 204.8 204.8v614.4a204.8 204.8 0 0 1-204.8 204.8H204.8a204.8 204.8 0 0 1-204.8-204.8V204.8a204.8 204.8 0 0 1 204.8-204.8z m0 102.4a102.4 102.4 0 0 0-102.4 102.4v614.4a102.4 102.4 0 0 0 102.4 102.4h614.4a102.4 102.4 0 0 0 102.4-102.4V204.8a102.4 102.4 0 0 0-102.4-102.4H204.8z"
          fill="#F78C1B" p-id="38554"></path>
    <path d="M468.48 635.0848l195.7888-215.552a28.7744 28.7744 0 0 1 43.52 0 36.352 36.352 0 0 1 0 47.9232L490.2912 706.8672a28.7744 28.7744 0 0 1-43.52 0L316.2112 563.2a36.352 36.352 0 0 1 0-47.9232 28.7744 28.7744 0 0 1 43.52 0l108.7488 119.808z"
          fill="#F78C1B" p-id="38555"></path>
</svg>