<svg t="1710834332664" class="icon" viewBox="0 0 1024 1024" version="1.1" xmlns="http://www.w3.org/2000/svg"
     p-id="12255" width="200" height="200">
    <path d="M612.6464 1014.4c-14.72 2.56-28.8 5.12-39.04 5.12-2.56 0.64-5.12 1.28-7.68 1.28-17.28 1.92-34.56 2.56-51.84 2.56-17.28 0-34.56-0.64-51.84-2.56-1.92-0.64-4.48-1.28-7.04-1.28-14.72-1.28-28.8-3.2-43.52-6.4h-1.28c-97.28-19.84-186.24-67.84-257.92-139.52-23.04-23.04-42.88-47.36-60.16-72.96-0.64-1.28-1.92-2.56-2.56-3.84-7.04-10.24-12.8-20.48-19.2-31.36-1.92-3.84-5.12-8.32-7.04-12.16-4.48-8.96-8.96-17.28-12.8-26.24-3.2-6.4-7.04-12.8-9.6-19.84-2.56-6.4-4.48-13.44-7.04-19.84-3.84-9.6-7.04-19.2-10.24-28.8-1.28-3.84-1.92-8.32-3.2-12.16-3.2-12.16-6.4-24.32-8.96-37.12-0.64-0.64-0.64-1.92-0.64-2.56-6.4-30.72-9.6-62.72-9.6-95.36 0-16.64 1.28-32.64 2.56-48.64V460.8c1.28-15.36 3.84-30.72 6.4-45.44 0-1.28 0.64-2.56 0.64-3.84 6.4-31.36 15.36-62.72 27.52-92.16 0.64-0.64 0.64-1.92 1.28-2.56 5.76-14.08 11.52-27.52 18.56-40.32 1.28-1.92 1.92-3.84 3.2-5.76 15.36-28.8 33.28-55.68 53.76-81.28 0.64-1.28 1.92-1.92 2.56-3.2 10.88-12.8 21.76-24.96 33.28-36.48 0.64 0 0.64-0.64 0.64-0.64 45.44-45.44 100.48-83.2 162.56-109.44 26.24-10.88 56.32 1.28 67.2 27.52 10.88 26.24-1.28 56.32-27.52 67.2-49.92 21.12-94.08 51.2-130.56 88.32-8.96 9.6-17.92 19.2-26.24 29.44-0.64 0.64-1.28 1.92-1.92 2.56-16.64 20.48-30.72 42.24-42.88 64.64-0.64 1.28-1.92 3.2-2.56 4.48-5.12 10.24-10.24 21.12-14.72 32 0 0.64-0.64 1.28-0.64 1.92-9.6 24.32-16.64 49.28-21.76 74.24 0 1.28-0.64 1.92-0.64 3.2-1.92 12.16-3.84 24.32-5.12 36.48v1.28c-3.84 38.4-1.92 76.8 5.12 115.2v1.92c1.92 9.6 4.48 19.84 7.04 29.44 0.64 3.84 1.28 7.04 2.56 10.24 1.92 7.68 5.12 14.72 7.68 22.4 1.92 5.12 3.84 10.88 5.76 16 1.92 5.76 4.48 10.88 7.04 16 3.2 7.04 6.4 14.08 10.24 21.12 1.28 3.2 3.2 5.76 5.12 8.96 5.12 8.32 10.24 17.28 16 25.6 0 0.64 0.64 1.28 1.28 1.92 58.88 85.76 149.12 148.48 254.72 170.24h1.28c10.88 1.92 23.04 3.84 34.56 5.12 1.92 0 3.84 0.64 5.76 0.64 13.44 1.28 27.52 1.92 41.6 1.92s28.16-0.64 41.6-1.92c1.92 0 3.84-0.64 5.76-0.64 11.52-1.28 23.04-2.56 34.56-5.12h1.28c158.72-33.28 284.16-158.72 317.44-317.44v-1.28c1.92-10.88 3.84-23.04 5.12-34.56 0-1.92 0.64-3.84 0.64-5.76 1.28-13.44 1.92-27.52 1.92-41.6 0-12.16-0.64-24.32-1.92-36.48 0-3.84-0.64-7.68-1.28-11.52-1.28-8.32-2.56-16-3.84-24.32-0.64-4.48-1.92-8.32-2.56-12.8-1.92-8.96-4.48-17.92-7.04-26.88-1.28-3.84-2.56-8.32-3.84-12.16-2.56-8.96-5.76-17.92-9.6-26.88-1.28-3.84-3.2-8.32-5.12-12.16-3.2-7.04-6.4-14.72-10.24-21.76-1.92-3.2-3.2-7.04-5.12-10.24-12.16-21.12-25.6-42.24-41.6-61.44-0.64-1.28-1.92-1.92-2.56-3.2-8.32-9.6-16.64-19.2-25.6-28.16-37.12-36.48-80.64-66.56-130.56-87.68-26.24-10.88-38.4-40.96-27.52-67.2 10.88-26.24 40.96-38.4 67.2-27.52 62.08 26.24 116.48 63.36 162.56 109.44 11.52 11.52 21.76 23.04 32 35.2 1.28 1.92 2.56 3.2 3.84 4.48 19.84 23.68 37.12 49.92 51.84 76.8 1.92 4.48 4.48 8.32 6.4 12.8 4.48 8.96 8.96 17.92 12.8 26.88 1.92 5.12 4.48 10.24 6.4 15.36 4.48 10.88 8.32 21.76 12.16 33.28 1.28 5.12 3.2 10.88 4.48 16 3.2 11.52 5.76 22.4 8.32 33.92 1.28 5.12 1.92 10.88 3.2 16 1.92 10.24 3.2 20.48 4.48 30.72 0.64 5.12 1.28 9.6 1.92 14.72 1.28 14.72 1.92 30.08 1.92 45.44 0 17.28-0.64 34.56-2.56 51.84-0.64 2.56-1.28 5.12-1.28 7.68-1.28 14.72-3.2 29.44-6.4 43.52-0.64 0.64-0.64 0.64-0.64 1.28-20.48 97.28-67.84 186.24-139.52 257.92-71.68 71.68-161.28 119.68-257.92 139.52-0.64 0.64-0.64 0.64-1.28 0.64z m-103.04-450.56c-28.16 0-51.2-23.04-51.2-51.2v-460.8c0-28.16 23.04-51.2 51.2-51.2s51.2 23.04 51.2 51.2v460.8c0 28.16-23.04 51.2-51.2 51.2z"
          fill="#FF4A4A" p-id="12256"></path>
</svg>