<svg t="1712928375942" class="icon" viewBox="0 0 1024 1024" version="1.1" xmlns="http://www.w3.org/2000/svg" p-id="6963"
     width="200" height="200">
    <path d="M511.885938 0c283.306509-0.113778 512.397938 229.48965 512.113493 513.478826-0.284444 281.599844-230.115428 510.80505-512.28416 510.520605C228.52254 1023.714987 0.113778 794.680447 0 510.918827-0.113778 229.48965 229.603428 0.113778 511.885938 0zM398.79089 393.329559c-5.859552-8.533329-14.904881-11.036438-24.234654-11.036438-24.291542-0.170667-48.583084-0.967111-72.931515 0.398222a30.151094 30.151094 0 0 0-17.635545 6.655996 29.86665 29.86665 0 0 0-10.126217 22.92621 42259.5463 42259.5463 0 0 0 0 183.864786c0 17.066657 15.985769 29.013317 29.070206 28.671985 24.803542-0.796444 49.720861-0.284444 74.69507-0.284445a26.851541 26.851541 0 0 0 27.022207-24.803542c0.170667-1.706666 0.284444-3.583998 0.284444-5.347552V412.557993c-0.113778-7.111107-1.080888-13.880881-6.143996-19.228434z m171.861237-195.071891c-4.892442-10.922661-13.198215-17.180435-25.315541-17.180435-25.315541-0.170667-50.631083 0-75.889736 0a24.063987 24.063987 0 0 0-18.8871 8.248884c-6.428441 7.45244-8.021329 16.270213-8.021329 25.998208 0.113778 126.008819 0.113778 251.846971 0 377.85579 0 7.395551 1.308444 13.994659 5.347552 20.309322a27.87554 27.87554 0 0 0 23.608876 11.320883c24.632875-0.284444 49.322639-0.170667 73.841737-0.170667a26.737763 26.737763 0 0 0 26.908429-24.91732c0.284444-2.673776 0.284444-5.347553 0.284445-7.96444V214.129659c0.284444-5.46133 0.568889-10.922661-1.877333-15.871991z m164.124354 120.433711c-5.859552-8.533329-14.904881-11.093327-24.234654-11.093328-24.291542-0.113778-48.526195-0.910222-72.931515 0.398222a30.151094 30.151094 0 0 0-17.635545 6.655997c-7.281774 6.257774-9.671106 14.677325-9.671106 23.89332-0.170667 85.333286 0.113778 170.666572-0.170667 255.999857 0 19.057767 15.587547 31.061316 30.719983 30.37865 24.063987-1.080888 48.355529-0.284444 72.590182-0.284444a26.965318 26.965318 0 0 0 27.249763-24.746653c0.227555-3.413331 0.512-6.712885 0.512-10.012439v-248.035418c-0.284444-8.248884-0.284444-16.668435-6.428441-23.153764z m-464.383742 451.981971c3.47022 0.568889 7.054218 0.682666 10.695105 0.682666h463.302854c18.659545 0 30.947538-9.784883 33.564425-26.567096a30.37865 30.37865 0 0 0-24.462208-34.133315 70.542183 70.542183 0 0 0-10.695105-0.682666h-461.368633c-20.252433 0-32.654204 9.671106-35.271092 26.965318a30.321761 30.321761 0 0 0 24.234654 33.735093z"
          fill="#517BE6" p-id="6964"></path>
</svg>