<svg t="1731601875304" class="icon" viewBox="0 0 1024 1024" version="1.1" xmlns="http://www.w3.org/2000/svg" p-id="6050"
     width="200" height="200">
    <path d="M246.122667 0h528.554666c85.568 0 116.608 8.917333 147.904 25.642667a174.464 174.464 0 0 1 72.576 72.576c16.725333 31.296 25.642667 62.336 25.642667 147.904v531.754666c0 85.568-8.917333 116.608-25.642667 147.904a174.464 174.464 0 0 1-72.576 72.576C891.285333 1015.082667 860.245333 1024 774.677333 1024H246.122667c-85.568 0-116.608-8.917333-147.904-25.642667a174.464 174.464 0 0 1-72.576-72.576C8.917333 894.485333 0 863.445333 0 777.877333V246.122667c0-85.568 8.917333-116.608 25.642667-147.904a174.464 174.464 0 0 1 72.576-72.576C129.514667 8.917333 160.554667 0 246.122667 0z"
          fill="#FFB803" p-id="6051"></path>
    <path d="M352.618667 255.232v17.834667c0 26.816 20.608 49.088 47.253333 51.072l3.797333 0.128H556.8a51.114667 51.114667 0 0 0 50.88-47.36l0.149333-3.84v-17.834667h46.4a51.114667 51.114667 0 0 1 51.050667 51.2v203.392a139.648 139.648 0 0 0-41.770667-6.357333c-16.384 0-30.933333 10.453333-36.224 26.026666l-6.976 0.725334a140.736 140.736 0 0 0-122.666666 139.648 140.373333 140.373333 0 0 0 26.112 81.792l-217.514667 0.021333a51.114667 51.114667 0 0 1-51.050667-51.2v-394.026667c0-28.288 22.869333-51.2 51.050667-51.2h46.378667v-0.021333zM544 234.666667c14.101333 0 25.536 11.456 25.536 25.6 0 14.144-11.434667 25.6-25.536 25.6h-127.573333c-14.101333 0-25.536-11.456-25.536-25.6 0-14.144 11.434667-25.6 25.514666-25.6H544z"
          fill="#FFFFFF" p-id="6052"></path>
    <path d="M637.973333 567.445333l0.021334 102.421334h102.08a102.250667 102.250667 0 0 1-100.373334 102.4 102.229333 102.229333 0 0 1-103.722666-98.986667 102.272 102.272 0 0 1 96.917333-105.685333l5.077333-0.149334z m25.536-25.578666a102.250667 102.250667 0 0 1 102.08 102.4h-102.08v-102.4z"
          fill="#FFFFFF" opacity=".6" p-id="6053"></path>
</svg>