<svg t="1711002936528" class="icon" viewBox="0 0 2491 1024" version="1.1" xmlns="http://www.w3.org/2000/svg" p-id="9406"
     width="200" height="200">
    <path d="M2127.522965 1024H121.141015a121.089444 121.089444 0 0 1-115.622884-156.983078L248.16116 85.144239A121.141015 121.141015 0 0 1 363.784045 0h2006.38195a121.089444 121.089444 0 0 1 115.622885 156.983078L2243.197421 938.597905a121.141015 121.141015 0 0 1-115.674456 85.402095z"
          fill="#E5EEFE" p-id="9407"></path>
    <path d="M561.250604 380.596293l-1.856567-42.082191h-40.225624l-18.565673 42.082191H389.827558l38.369058-87.258662h259.300564l-12.377116 45.176471h-22.278807l1.856567 42.082191z m159.045931-87.258662h254.968574l-12.377115 45.176471h-19.184529l1.856567 42.082191h-93.44722l-1.856567-42.082191h-38.369057l-18.565673 42.082191h-111.394037z m-26.610798 199.271555h230.833199l-17.327961 61.885576h-100.254633l-5.569702 22.278808h113.86946l-17.946817 60.647864h-112.631749L748.145044 773.569702h-256.825141l19.184529-67.455278h164.615632l17.946818-68.69299h-132.435133l-16.09025 56.315875h-92.828364l16.090249-56.315875H344.651088l17.946817-60.647864h345.940371l6.188557-22.278808H342.175665l17.327961-61.885576h240.734891l5.569702-21.041096h-204.222401l19.803384-61.885576h201.128123l6.807413-26.610798h94.684932l-7.42627 26.610798h206.285254l-19.803384 61.885576h-202.98469z m889.502015-184.419017l-20.00967 61.266721h-119.232877l-6.188557 25.785656h139.242546l-17.327961 61.885576h-70.136986l-9.489122 34.862208h76.9444l-19.184529 65.598711h-74.881547L1406.607575 768.412571h-195.558421l19.803384-74.262692h102.730057l36.51249-136.767123h-228.976632l19.184528-65.392426h226.91378l9.282836-34.655922h-222.788074l17.327961-61.885576h153.682514l6.188558-25.785657h-128.721998l19.803384-61.473006h124.596293l10.314263-42.082192h92.209508l-10.314262 42.082192zM1006.826753 387.403707l16.709105-66.217567 172.041902-40.225624-16.709106 66.217566z m42.082191 84.783239l-66.217566 17.327961 16.09025-71.168412 172.041901-40.225625-107.680902 397.924255h-100.254633z m128.928284 196.796132l23.516519-89.734085h92.828364l-23.722804 89.734085z m826.791297-468.473811l-31.767929 127.484287h220.312651l-77.975826 292.099919h-214.742949L1862.704271 773.569702h-97.985496l39.606769-153.476229h-70.343272l19.803385-74.262691h70.549557l37.33763-143.574537h-121.502014l-58.172442 217.837228h-92.828364l77.975826-292.099919h213.505238l15.471394-59.410154zM1954.501209 402.256245l-35.274779 143.574537h122.946012l38.369057-143.574537z"
          fill="#2772F0" p-id="9408"></path>
</svg>