<svg t="1711432977013" class="icon" viewBox="0 0 1024 1024" version="1.1" xmlns="http://www.w3.org/2000/svg"
     p-id="37193" width="200" height="200">
    <path d="M810.666667 106.666667H910.222222a113.777778 113.777778 0 0 1 113.777778 113.777777V910.222222a113.777778 113.777778 0 0 1-113.777778 113.777778H113.777778a113.777778 113.777778 0 0 1-113.777778-113.777778V220.444444a113.777778 113.777778 0 0 1 113.777778-113.777777h99.555555v85.333333a85.333333 85.333333 0 0 0 170.666667 0v-85.333333h256v85.333333a85.333333 85.333333 0 0 0 170.666667 0v-85.333333zM291.555556 0h14.222222a56.888889 56.888889 0 0 1 56.888889 56.888889v120.888889a56.888889 56.888889 0 0 1-56.888889 56.888889h-14.222222a56.888889 56.888889 0 0 1-56.888889-56.888889V56.888889a56.888889 56.888889 0 0 1 56.888889-56.888889z m426.666666 0h14.222222a56.888889 56.888889 0 0 1 56.888889 56.888889v120.888889a56.888889 56.888889 0 0 1-56.888889 56.888889h-14.222222a56.888889 56.888889 0 0 1-56.888889-56.888889V56.888889a56.888889 56.888889 0 0 1 56.888889-56.888889zM142.222222 320a56.888889 56.888889 0 0 0-56.888889 56.888889V881.777778a56.888889 56.888889 0 0 0 56.888889 56.888889h739.555556a56.888889 56.888889 0 0 0 56.888889-56.888889V376.888889a56.888889 56.888889 0 0 0-56.888889-56.888889H142.222222z m360.704 175.900444h39.253334v30.208h72.931555v33.649778h-72.903111v34.929778h86.300444v35.84h-212.280888v-35.84h86.698666V559.786667h-74.638222v-33.649778h74.638222v-30.208z m185.543111-47.900444v343.438222c0 25.315556-14.961778 37.973333-44.885333 37.973334H589.653333l-10.780444-38.826667c20.992 1.422222 38.542222 2.161778 52.622222 2.161778 10.951111 0 16.412444-5.176889 16.412445-15.530667V485.546667h-250.680889v136.334222c-0.853333 86.584889-16.241778 156.615111-46.165334 210.119111l-31.061333-28.046222c23.324444-47.160889 35.384889-106.865778 36.238222-179.057778V448h332.231111z m-258.446222 207.957333h180.792889v111.758223h-180.792889V655.928889z m141.511111 76.373334V690.062222h-102.257778v42.268445h102.257778z"
          fill="#1296db" p-id="37194"></path>
</svg>