<svg t="1711289412542" class="icon" viewBox="0 0 1026 1024" version="1.1" xmlns="http://www.w3.org/2000/svg" p-id="8426"
     width="200" height="200">
    <path d="M666.733447 938.521353H17.095729v68.382918h991.552306v-68.382918z m0 0" fill="#939598" p-id="8427"></path>
    <path d="M359.010318 459.84093v478.680423h153.861564v-478.680423z m0 0" fill="#D80027" p-id="8428"></path>
    <path d="M512.871882 459.84093v478.680423h153.861565v-478.680423z m0 0" fill="#ED1C24" p-id="8429"></path>
    <path d="M803.499282 664.989682h153.861565v273.531671h-153.861565z m0 0" fill="#FFCD00" p-id="8430"></path>
    <path d="M666.733447 664.989682h136.765835v273.531671h-136.765835z m0 0" fill="#EBBF00" p-id="8431"></path>
    <path d="M222.244482 596.606765h136.765836v341.914588h-136.765836z m0 0" fill="#2488FF" p-id="8432"></path>
    <path d="M85.478647 596.606765h136.765835v341.914588H85.478647z m0 0" fill="#006DF0" p-id="8433"></path>
    <path d="M480.389996 43.965942L458.43908 111.400047a34.191459 34.191459 0 0 1-32.511804 23.624161h-70.895989a34.182911 34.182911 0 0 0-32.522489 23.622024 34.191459 34.191459 0 0 0 12.413637 38.230325l57.371131 41.681525a34.170089 34.170089 0 0 1 12.413636 38.223914l-21.895355 67.421283c-4.573108 14.091155 0.442352 29.509366 12.420047 38.215366a34.191459 34.191459 0 0 0 40.185649 0.017096l57.356172-41.679389a34.178637 34.178637 0 0 1 20.100304-6.536979V20.343918a33.561054 33.561054 0 0 0-32.481886 23.622024z m0 0"
          fill="#F7941D" p-id="8434"></path>
    <path d="M670.714615 135.022071h-70.89599a34.191459 34.191459 0 0 1-32.479749-23.624161L545.353768 43.965942A33.561054 33.561054 0 0 0 512.871882 20.343918v313.873318c7.220809 0 14.257838 2.286554 20.100304 6.536979l57.356172 41.679389c11.98838 8.697452 28.207954 8.688904 40.185649-0.017096s16.995292-24.124211 12.420048-38.215366l-21.895356-67.421283a34.170089 34.170089 0 0 1 12.413637-38.223914l57.371131-41.679388a34.191459 34.191459 0 0 0 12.413636-38.230325 34.182911 34.182911 0 0 0-32.522488-23.624161z m0 0"
          fill="#FBB040" p-id="8435"></path>
    <path d="M1008.648035 921.425624h-34.191459v-256.435942a17.095729 17.095729 0 0 0-17.095729-17.095729H683.829176v-188.053023a17.095729 17.095729 0 0 0-17.095729-17.09573H359.010318a17.095729 17.095729 0 0 0-17.09573 17.09573v119.670105H68.382918a17.095729 17.095729 0 0 0-17.09573 17.09573v324.818859H17.095729a17.095729 17.095729 0 0 0-17.095729 17.095729v68.382918a17.095729 17.095729 0 0 0 17.095729 17.095729h991.552306a17.095729 17.095729 0 0 0 17.095729-17.095729v-68.382918a17.095729 17.095729 0 0 0-17.095729-17.095729z m-68.382918-239.340212v239.340212H683.829176v-239.340212z m-564.15907-205.148753h273.53167v444.488965H376.106047z m-290.6274 136.765835h256.435941v307.72313H85.478647z m906.073659 376.106047H34.191459v-34.191459h957.360847z m0 0M324.818859 210.709139l57.373268 41.677251a17.087182 17.087182 0 0 1 6.210023 19.108752l-21.869712 67.431967a51.287188 51.287188 0 0 0 78.93312 57.339077l57.356172-41.662293a17.089319 17.089319 0 0 1 20.100304 0l57.356172 41.662293a50.53925 50.53925 0 0 0 60.303049 0 50.534976 50.534976 0 0 0 18.630071-57.339077l-21.918862-67.431967a17.087182 17.087182 0 0 1 6.210024-19.108752L700.924906 210.709139a51.308558 51.308558 0 0 0 18.62366-57.373268 51.302147 51.302147 0 0 0-48.833951-35.40953h-70.89599a17.104277 17.104277 0 0 1-16.260176-11.813149l-21.895355-67.421282C554.809843 17.535944 535.109152 3.205449 512.871882 3.205449s-41.937961 14.332632-48.791212 35.484324L442.202411 106.113192a17.106414 17.106414 0 0 1-16.277272 11.813149h-70.895989a51.302147 51.302147 0 0 0-48.833951 35.40953A51.308558 51.308558 0 0 0 324.818859 210.709139z m13.898828-46.780327a16.599953 16.599953 0 0 1 16.311463-11.811012h70.893852a51.287188 51.287188 0 0 0 48.793349-35.435173l21.895356-67.431968a17.104277 17.104277 0 0 1 32.488296 0l21.912452 67.446927a51.167518 51.167518 0 0 0 48.808307 35.420214h70.893853a17.095729 17.095729 0 0 1 10.050152 30.926175L623.395773 224.723363A51.291462 51.291462 0 0 0 604.761428 282.062439l21.920999 67.42342a17.100003 17.100003 0 0 1-26.295369 19.115163l-57.356172-41.662293a51.184614 51.184614 0 0 0-60.318007 0l-57.356173 41.662293a17.100003 17.100003 0 0 1-26.295368-19.115163L420.982337 282.045344a51.291462 51.291462 0 0 0-18.632208-57.339077l-57.371131-41.679388a16.593542 16.593542 0 0 1-6.212161-19.098067z m0 0"
          fill="#231F20" p-id="8436"></path>
    <path d="M461.584694 716.276871a17.095729 17.095729 0 0 0 0 34.191458h102.574376a17.095729 17.095729 0 0 0 0-34.191458h-34.191458v-153.861565a17.100003 17.100003 0 0 0-10.552339-15.794317 17.125647 17.125647 0 0 0-18.630071 3.705499l-51.287189 51.287189a17.095729 17.095729 0 0 0 24.173362 24.175498L495.776153 603.684397v112.592474z m0 0"
          fill="#231F20" p-id="8437"></path>
</svg>