<svg t="1710997426279" class="icon" viewBox="0 0 2577 1024" version="1.1" xmlns="http://www.w3.org/2000/svg"
     p-id="18573" width="200" height="200">
    <path d="M1187.133793 993.633103l18.361379-135.591724h-218.924138l26.835863-196.325517h193.500689l18.36138-135.591724H1033.18069l28.248276-201.975172H1253.517241l18.36138-135.591725h-190.675862L1108.038621 2.118621H876.402759l11.29931 53.671724-19.773793 132.766896H815.668966l32.485517-145.47862h-197.737931l19.773793 39.547586L589.682759 455.503448h166.664827l28.248276-131.354482h64.971035l-28.248276 201.975172H606.631724l-18.361379 135.591724H801.544828L774.708966 858.041379h-240.110345l-18.36138 135.591724h670.896552z m-1002.813793 24.011035l62.146207-346.041379h103.106207l-38.135173 268.35862-70.620689 77.682759h155.365517c24.487724 0 46.380138-8.951172 65.677241-26.835862 19.297103-17.88469 30.843586-40.024276 34.604138-66.383448l125.704828-896.882759H143.36L170.195862 74.151724 4.943448 1017.644138h179.376552z m220.336552-735.867586h-87.569655l22.59862-120.055173h81.92l-16.948965 120.055173z m-36.722759 255.646896h-97.456552l22.598621-121.467586h91.806897l-16.948966 121.467586z m1362.97931 481.633104l81.92-587.564138h216.099311l18.361379-134.179311H1832.606897l18.361379-135.591724 190.675862-12.711724 18.361379-134.17931-610.162758 40.96-18.36138 134.17931 203.387587-12.711724-16.948966 120.055172H1403.233103l-18.361379 134.179311h213.274483l-81.92 587.564138h214.686896z m601.688276 0c27.312552 0 51.323586-8.704 72.033104-26.129655s32.962207-39.777103 36.722758-67.089656l127.117242-896.882758h-268.358621l33.897931 40.96-115.817931 817.787586-124.292414 131.354483h238.697931z m-163.84-158.190345l101.693793-724.568276h-159.602758l-101.693793 724.568276h159.602758z m-699.144827 107.343448l97.456551-497.169655h-161.015172l-97.456552 497.169655h161.015173z m483.045517 0l43.784828-497.169655h-161.015173l-43.784827 497.169655h161.015172z"
          fill="#0080FF" p-id="18574"></path>
</svg>