<svg t="1711364394626" class="icon" viewBox="0 0 1243 1024" version="1.1" xmlns="http://www.w3.org/2000/svg"
     p-id="14589" width="200" height="200">
    <path d="M797.44 20.626286l4.534857 4.352 168.667429 173.604571c30.756571 31.744 32.256 82.176 4.388571 115.712l-4.388571 4.900572-133.595429 137.545142-0.146286 0.146286L318.756571 990.281143l-1.060571 0.731428a27.355429 27.355429 0 0 1-7.68 5.193143c-0.146286 0.109714-0.329143 0.256-0.512 0.329143a26.916571 26.916571 0 0 1-7.789714 1.938286l-236.690286 22.162286-34.742857 3.254857C29.403429 1024 28.598857 1024 27.757714 1024a27.282286 27.282286 0 0 1-20.370285-9.252571A28.891429 28.891429 0 0 1 0.146286 996.937143l0.073143-3.986286 24.685714-279.405714a29.001143 29.001143 0 0 1 1.901714-8.009143l0.292572-0.548571a28.306286 28.306286 0 0 1 5.12-7.899429l0.329142-0.548571 0.365715-0.512L684.8 24.978286a81.188571 81.188571 0 0 1 112.64-4.352z m418.889143 945.773714v51.2H441.161143v-51.2h775.168z m-1141.723429-187.245714l-16.347428 185.051428 179.748571-16.822857-163.401143-168.228571zM570.660571 222.902857L91.501714 716.105143l207.725715 213.833143L778.386286 436.699429 570.660571 222.866286z m-19.492571 193.718857a27.062857 27.062857 0 0 1 39.021714 0 29.037714 29.037714 0 0 1 0 40.192l-246.784 254.025143a27.136 27.136 0 0 1-19.529143 8.338286 27.611429 27.611429 0 0 1-25.490285-17.554286 29.037714 29.037714 0 0 1 5.997714-30.976z m192.256-359.789714a27.062857 27.062857 0 0 0-16.237714 5.412571l-3.291429 2.925715-114.176 117.504 207.725714 213.833143 114.139429-117.504a29.147429 29.147429 0 0 0 2.669714-37.046858l-2.669714-3.181714-168.630857-173.604571a27.209143 27.209143 0 0 0-19.529143-8.338286z"
          fill="#FF6A00" p-id="14590"></path>
</svg>